{"title":"Primal.2010.BDRip.XVID.AC3.HQ.Hive-CM8","uid":6247377,"size":1371966818,"categoryP":"video","categoryS":"movies","magnet":"?xt=urn:btih:05b1a6640d25728c16b18b5d88fa6ff410e2cb4c&amp;dn=Primal.2010.BDRip.XVID.AC3.HQ.Hive-CM8&amp;tr=udp%3A%2F%2Ftracker.openbittorrent.com%3A80&amp;tr=udp%3A%2F%2Fopen.demonii.com%3A1337&amp;tr=udp%3A%2F%2Ftracker.coppersurfer.tk%3A6969&amp;tr=udp%3A%2F%2Fexodus.desync.com%3A6969","seeders":0,"leechers":1,"uploader":"sceneline","files":6,"time":1300237191,"description":"-\nhttp:// www. Speed. Cd       \nhttp:// www. Speed. Cd       the fast  and The Hottest Private Tracker on the net\n\nPlease Seed back to make the speed Faster!!!\n\nand don't forget to visit      ...... www. Speed. Cd..........\n-[img]http://img541.imageshack.us/img541/6563/primal.jpg[/img]\n\n[color=blue][size=5][b]Primal 2010 BDRip XVID AC3 HQ Hive-CM8[/b][/size][/color]\n\n\n[b]Thx Hive\n\nCM8 Doing It Right The First Time :D\n\nWhy download a touched up rip of a rip BRrip\nGet the real deal BDRip\nEnjoy\n\nSource Bluray\n\nVideo: 720x400 @bitrate 1800 2pass\nAudio: English AC3 5.1 @448\nSample: yes included\nSubs: yes english in srt /subs[/b]\n\n\n[url]http://www.imdb.com/title/tt1438534/[/url]\n\n\nGeneral\nComplete name                    : Primal.2010.BDRip.XVID.AC3.HQ.Hive-CM8.avi\nFormat                           : AVI\nFormat/Info                      : Audio Video Interleave\nFile size                        : 1.27 GiB\nDuration                         : 1h 20mn\nOverall bit rate                 : 2 256 Kbps\nWriting application              : Nandub v1.0rc2\nWriting library                  : Nandub build 1853/release\n\nVideo\nID                               : 0\nFormat                           : MPEG-4 Visual\nFormat profile                   : Advanced Simple@L5\nFormat settings, BVOP            : Yes\nFormat settings, QPel            : Yes\nFormat settings, GMC             : No warppoints\nFormat settings, Matrix          : Default (H.263)\nMuxing mode                      : Packed bitstream\nCodec ID                         : XVID\nCodec ID/Hint                    : XviD\nDuration                         : 1h 20mn\nBit rate                         : 1 798 Kbps\nWidth                            : 720 pixels\nHeight                           : 400 pixels\nDisplay aspect ratio             : 16:9\nFrame rate                       : 25.000 fps\nColor space                      : YUV\nChroma subsampling               : 4:2:0\nBit depth                        : 8 bits\nScan type                        : Progressive\nBits/(Pixel*Frame)               : 0.250\nStream size                      : 1.01 GiB (80%)\nWriting library                  : XviD 1.2.1 (UTC 2008-12-04)\n\nAudio\nID                               : 1\nFormat                           : AC-3\nFormat/Info                      : Audio Coding 3\nMode extension                   : CM (complete main)\nCodec ID                         : 2000\nDuration                         : 1h 20mn\nBit rate mode                    : Constant\nBit rate                         : 448 Kbps\nChannel(s)                       : 6 channels\nChannel positions                : Front: L C R, Side: L R, LFE\nSampling rate                    : 48.0 KHz\nBit depth                        : 16 bits\nStream size                      : 259 MiB (20%)\nAlignment                        : Split accross interleaves\nInterleave, duration             : 40 ms (1.00 video frame)\nInterleave, preload duration     : 500 ms\n\n\n\n\nKrew Boylan\t... \tMel\nLindsay Farris\t... \tChad\nRebekah Foord\t... \tKris\nDamien Freeleagus ... \tWarren\nStephen Shanahan ... \tSquatter\nWil Traval\t... \tDace\nZoe Tuckwell-Smith ... \tAnja\nCh'aska Cuba de Reed\t... \tSquatter's daughter\nSantiago Cuba de Reed\t... \tSquatter's son\n\n\nAnja and five friends join anthropology student Dace on a journey to study \na remote ancient rock painting. Their excitement vanishes when Mel becomes \ndelirious after skinny-dipping in the waterhole. Feverish bleeding confused \nshe physically and mentally regresses to a vicious predatory state. Mel has gone primal.\n\n\n\n[img]http://img560.imageshack.us/img560/3492/prprpr.png[/img]\n[img]http://img846.imageshack.us/img846/517/96966924.png[/img]\n[img]http://img97.imageshack.us/img97/272/prprf.png[/img]\n[img]http://img42.imageshack.us/img42/3292/prprpprprprr.png[/img]\n[img]http://img852.imageshack.us/img852/7636/prprpprprr.png[/img]\n[img]http://img64.imageshack.us/img64/5296/prprpprr.png[/img]\n\n\n\n\n\nGreetz\n\niNK,LUSi,,MAGNET,CLASSiFiED,THC,LEGi0N,T0XiC,IMAGiNE,ViSiON,WBZ,FLAWL3SS,NOVA\nVik,Rapeseed,D2U,SAFC,goldadvance,MEMORY100,KaN1vE,Unevano,Pinnz,Wayne,Mr Hive\nand all P2P groups \nGreat Work Guys :D\n\n&lt;a class=&quot;__cf_email__&quot; href=&quot;/cdn-cgi/l/email-protection&quot; data-cfemail=&quot;95d6d8add5fde0e6fdf8f4fcf9bbf6faf8&quot;&gt;[email&amp;#160;protected]&lt;/a&gt;&lt;script cf-hash='f9e31' type=&quot;text/javascript&quot;&gt;\n/* &lt;![CDATA[ */!function(){try{var t=&quot;currentScript&quot;in document?document.currentScript:function(){for(var t=document.getElementsByTagName(&quot;script&quot;),e=t.length;e--;)if(t[e].getAttribute(&quot;cf-hash&quot;))return t[e]}();if(t&amp;&amp;t.previousSibling){var e,r,n,i,c=t.previousSibling,a=c.getAttribute(&quot;data-cfemail&quot;);if(a){for(e=&quot;&quot;,r=parseInt(a.substr(0,2),16),n=2;a.length-n;n+=2)i=parseInt(a.substr(n,2),16)^r,e+=String.fromCharCode(i);e=document.createTextNode(e),c.parentNode.replaceChild(e,c)}}}catch(u){}}();/* ]]&gt; */&lt;/script&gt;","torrent":{"xt":"urn:btih:05b1a6640d25728c16b18b5d88fa6ff410e2cb4c","amp;dn":"Primal.2010.BDRip.XVID.AC3.HQ.Hive-CM8","amp;tr":["udp%3A%2F%2Ftracker.openbittorrent.com%3A80","udp%3A%2F%2Fopen.demonii.com%3A1337","udp%3A%2F%2Ftracker.coppersurfer.tk%3A6969","udp%3A%2F%2Fexodus.desync.com%3A6969"],"infoHash":"05b1a6640d25728c16b18b5d88fa6ff410e2cb4c","infoHashBuffer":{"type":"Buffer","data":[5,177,166,100,13,37,114,140,22,177,139,93,136,250,111,244,16,226,203,76]},"announce":[],"urlList":[]}}